<mxfile host="app.diagrams.net" agent="Mozilla/5.0 (Windows NT 10.0; Win64; x64; rv:129.0) Gecko/20100101 Firefox/129.0" version="24.7.6">
  <diagram id="C5RBs43oDa-KdzZeNtuy" name="Page-1">
    <mxGraphModel dx="2373" dy="1255" grid="1" gridSize="10" guides="1" tooltips="1" connect="1" arrows="1" fold="1" page="1" pageScale="1" pageWidth="827" pageHeight="1169" math="0" shadow="0">
      <root>
        <mxCell id="WIyWlLk6GJQsqaUBKTNV-0" />
        <mxCell id="WIyWlLk6GJQsqaUBKTNV-1" parent="WIyWlLk6GJQsqaUBKTNV-0" />
        <mxCell id="SAEvLFweczplVzYCOx6r-12" style="edgeStyle=orthogonalEdgeStyle;rounded=0;orthogonalLoop=1;jettySize=auto;html=1;exitX=0.5;exitY=1;exitDx=0;exitDy=0;entryX=0.5;entryY=0;entryDx=0;entryDy=0;" edge="1" parent="WIyWlLk6GJQsqaUBKTNV-1" source="WIyWlLk6GJQsqaUBKTNV-3" target="SAEvLFweczplVzYCOx6r-5">
          <mxGeometry relative="1" as="geometry" />
        </mxCell>
        <mxCell id="WIyWlLk6GJQsqaUBKTNV-3" value="&lt;div&gt;Erste Validierung&amp;nbsp;&lt;/div&gt;&lt;div&gt;bzgl. Datenschema&lt;/div&gt;" style="rounded=1;whiteSpace=wrap;html=1;fontSize=12;glass=0;strokeWidth=1;shadow=0;" parent="WIyWlLk6GJQsqaUBKTNV-1" vertex="1">
          <mxGeometry x="320" y="80" width="200" height="50" as="geometry" />
        </mxCell>
        <mxCell id="SAEvLFweczplVzYCOx6r-11" style="edgeStyle=orthogonalEdgeStyle;rounded=0;orthogonalLoop=1;jettySize=auto;html=1;exitX=0.5;exitY=1;exitDx=0;exitDy=0;entryX=0.5;entryY=0;entryDx=0;entryDy=0;" edge="1" parent="WIyWlLk6GJQsqaUBKTNV-1" source="SAEvLFweczplVzYCOx6r-1" target="WIyWlLk6GJQsqaUBKTNV-3">
          <mxGeometry relative="1" as="geometry" />
        </mxCell>
        <mxCell id="SAEvLFweczplVzYCOx6r-1" value="" style="ellipse;fillColor=strokeColor;html=1;" vertex="1" parent="WIyWlLk6GJQsqaUBKTNV-1">
          <mxGeometry x="405" y="10" width="30" height="30" as="geometry" />
        </mxCell>
        <mxCell id="SAEvLFweczplVzYCOx6r-2" value="Linking Job" style="shape=umlFrame;whiteSpace=wrap;html=1;pointerEvents=0;recursiveResize=0;container=1;collapsible=0;width=160;" vertex="1" parent="WIyWlLk6GJQsqaUBKTNV-1">
          <mxGeometry x="270" y="660" width="340" height="180" as="geometry" />
        </mxCell>
        <mxCell id="SAEvLFweczplVzYCOx6r-7" style="edgeStyle=orthogonalEdgeStyle;rounded=0;orthogonalLoop=1;jettySize=auto;html=1;exitX=1;exitY=0.5;exitDx=0;exitDy=0;entryX=0;entryY=0.5;entryDx=0;entryDy=0;" edge="1" parent="WIyWlLk6GJQsqaUBKTNV-1" source="SAEvLFweczplVzYCOx6r-5" target="SAEvLFweczplVzYCOx6r-6">
          <mxGeometry relative="1" as="geometry" />
        </mxCell>
        <mxCell id="SAEvLFweczplVzYCOx6r-14" style="edgeStyle=orthogonalEdgeStyle;rounded=0;orthogonalLoop=1;jettySize=auto;html=1;exitX=0.5;exitY=1;exitDx=0;exitDy=0;entryX=0.5;entryY=0;entryDx=0;entryDy=0;" edge="1" parent="WIyWlLk6GJQsqaUBKTNV-1" source="SAEvLFweczplVzYCOx6r-5" target="SAEvLFweczplVzYCOx6r-8">
          <mxGeometry relative="1" as="geometry" />
        </mxCell>
        <mxCell id="SAEvLFweczplVzYCOx6r-5" value="Valide?" style="rhombus;whiteSpace=wrap;html=1;shadow=0;fontFamily=Helvetica;fontSize=12;align=center;strokeWidth=1;spacing=6;spacingTop=-4;" vertex="1" parent="WIyWlLk6GJQsqaUBKTNV-1">
          <mxGeometry x="370" y="160" width="100" height="80" as="geometry" />
        </mxCell>
        <mxCell id="SAEvLFweczplVzYCOx6r-6" value="ddd" style="ellipse;html=1;shape=endState;fillColor=strokeColor;" vertex="1" parent="WIyWlLk6GJQsqaUBKTNV-1">
          <mxGeometry x="740" y="185" width="30" height="30" as="geometry" />
        </mxCell>
        <mxCell id="SAEvLFweczplVzYCOx6r-21" style="edgeStyle=orthogonalEdgeStyle;rounded=0;orthogonalLoop=1;jettySize=auto;html=1;exitX=0.5;exitY=1;exitDx=0;exitDy=0;entryX=0.5;entryY=0;entryDx=0;entryDy=0;" edge="1" parent="WIyWlLk6GJQsqaUBKTNV-1" source="SAEvLFweczplVzYCOx6r-8" target="SAEvLFweczplVzYCOx6r-9">
          <mxGeometry relative="1" as="geometry" />
        </mxCell>
        <mxCell id="SAEvLFweczplVzYCOx6r-8" value="Nutzerauthentifizierung" style="rounded=1;whiteSpace=wrap;html=1;fontSize=12;glass=0;strokeWidth=1;shadow=0;" vertex="1" parent="WIyWlLk6GJQsqaUBKTNV-1">
          <mxGeometry x="320" y="270" width="200" height="50" as="geometry" />
        </mxCell>
        <mxCell id="SAEvLFweczplVzYCOx6r-15" style="edgeStyle=orthogonalEdgeStyle;rounded=0;orthogonalLoop=1;jettySize=auto;html=1;exitX=1;exitY=0.5;exitDx=0;exitDy=0;entryX=0;entryY=0.5;entryDx=0;entryDy=0;" edge="1" parent="WIyWlLk6GJQsqaUBKTNV-1" source="SAEvLFweczplVzYCOx6r-9" target="SAEvLFweczplVzYCOx6r-10">
          <mxGeometry relative="1" as="geometry" />
        </mxCell>
        <mxCell id="SAEvLFweczplVzYCOx6r-25" style="edgeStyle=orthogonalEdgeStyle;rounded=0;orthogonalLoop=1;jettySize=auto;html=1;exitX=0.5;exitY=1;exitDx=0;exitDy=0;entryX=0.5;entryY=0;entryDx=0;entryDy=0;" edge="1" parent="WIyWlLk6GJQsqaUBKTNV-1" source="SAEvLFweczplVzYCOx6r-9" target="SAEvLFweczplVzYCOx6r-16">
          <mxGeometry relative="1" as="geometry" />
        </mxCell>
        <mxCell id="SAEvLFweczplVzYCOx6r-9" value="Authentifiziert?" style="rhombus;whiteSpace=wrap;html=1;shadow=0;fontFamily=Helvetica;fontSize=12;align=center;strokeWidth=1;spacing=6;spacingTop=-4;" vertex="1" parent="WIyWlLk6GJQsqaUBKTNV-1">
          <mxGeometry x="370" y="350" width="100" height="80" as="geometry" />
        </mxCell>
        <mxCell id="SAEvLFweczplVzYCOx6r-10" value="ddd" style="ellipse;html=1;shape=endState;fillColor=strokeColor;" vertex="1" parent="WIyWlLk6GJQsqaUBKTNV-1">
          <mxGeometry x="740" y="375" width="30" height="30" as="geometry" />
        </mxCell>
        <mxCell id="SAEvLFweczplVzYCOx6r-26" style="edgeStyle=orthogonalEdgeStyle;rounded=0;orthogonalLoop=1;jettySize=auto;html=1;exitX=0.5;exitY=1;exitDx=0;exitDy=0;entryX=0.5;entryY=0;entryDx=0;entryDy=0;" edge="1" parent="WIyWlLk6GJQsqaUBKTNV-1" source="SAEvLFweczplVzYCOx6r-16" target="SAEvLFweczplVzYCOx6r-20">
          <mxGeometry relative="1" as="geometry" />
        </mxCell>
        <mxCell id="SAEvLFweczplVzYCOx6r-16" value="&lt;div&gt;Validierung der&amp;nbsp;&lt;/div&gt;&lt;div&gt;Eingabedaten&lt;/div&gt;" style="rounded=1;whiteSpace=wrap;html=1;fontSize=12;glass=0;strokeWidth=1;shadow=0;" vertex="1" parent="WIyWlLk6GJQsqaUBKTNV-1">
          <mxGeometry x="320" y="470" width="200" height="50" as="geometry" />
        </mxCell>
        <mxCell id="SAEvLFweczplVzYCOx6r-28" style="edgeStyle=orthogonalEdgeStyle;rounded=0;orthogonalLoop=1;jettySize=auto;html=1;exitX=1;exitY=0.5;exitDx=0;exitDy=0;entryX=0;entryY=0.5;entryDx=0;entryDy=0;" edge="1" parent="WIyWlLk6GJQsqaUBKTNV-1" source="SAEvLFweczplVzYCOx6r-20" target="SAEvLFweczplVzYCOx6r-27">
          <mxGeometry relative="1" as="geometry" />
        </mxCell>
        <mxCell id="SAEvLFweczplVzYCOx6r-20" value="Valide?" style="rhombus;whiteSpace=wrap;html=1;shadow=0;fontFamily=Helvetica;fontSize=12;align=center;strokeWidth=1;spacing=6;spacingTop=-4;" vertex="1" parent="WIyWlLk6GJQsqaUBKTNV-1">
          <mxGeometry x="370" y="545" width="100" height="80" as="geometry" />
        </mxCell>
        <mxCell id="SAEvLFweczplVzYCOx6r-27" value="ddd" style="ellipse;html=1;shape=endState;fillColor=strokeColor;" vertex="1" parent="WIyWlLk6GJQsqaUBKTNV-1">
          <mxGeometry x="740" y="570" width="30" height="30" as="geometry" />
        </mxCell>
      </root>
    </mxGraphModel>
  </diagram>
</mxfile>
